<?xml version="1.0" standalone="no"?>
<!DOCTYPE svg PUBLIC "-//W3C//DTD SVG 20010904//EN"
 "http://www.w3.org/TR/2001/REC-SVG-20010904/DTD/svg10.dtd">
<svg version="1.0" xmlns="http://www.w3.org/2000/svg"
 width="225.000000pt" height="225.000000pt" viewBox="0 0 225.000000 225.000000"
 preserveAspectRatio="xMidYMid meet">

<g transform="translate(0.000000,225.000000) scale(0.100000,-0.100000)"
fill="#000000" stroke="none">
<path d="M911 2139 c-413 -87 -720 -403 -806 -828 -24 -115 -16 -332 15 -446
83 -305 298 -560 577 -686 170 -76 409 -108 590 -79 502 81 873 516 873 1025
0 446 -281 837 -705 982 -163 56 -372 68 -544 32z m345 -50 c596 -83 977 -682
797 -1254 -65 -206 -204 -395 -378 -515 -70 -48 -223 -118 -311 -141 -119 -32
-303 -36 -424 -11 -186 38 -346 120 -477 246 -100 94 -157 172 -214 291 -75
158 -93 240 -93 425 1 139 3 164 28 245 56 189 140 329 268 451 87 83 137 118
234 167 180 91 374 123 570 96z"/>
<path d="M1171 1528 c-36 -116 -211 -716 -211 -726 0 -8 17 -12 49 -12 39 0
51 4 55 18 67 227 216 740 216 745 0 4 -22 7 -49 7 -47 0 -50 -2 -60 -32z"/>
<path d="M620 1276 l-245 -114 0 -47 0 -47 234 -109 c128 -59 242 -111 253
-115 18 -5 19 -1 16 47 l-3 53 -101 46 c-55 25 -140 63 -188 84 -48 21 -83 42
-79 46 4 4 87 42 183 84 96 42 178 82 182 89 10 16 10 97 1 97 -5 0 -118 -51
-253 -114z"/>
<path d="M1350 1338 l0 -54 128 -54 c70 -29 156 -67 192 -83 l65 -29 -35 -18
c-19 -10 -106 -48 -192 -85 l-158 -67 0 -54 0 -53 33 14 c17 7 129 58 247 113
l215 99 3 49 3 49 -242 110 c-133 61 -245 112 -250 113 -5 2 -9 -20 -9 -50z"/>
</g>
</svg>
